<svg width="29" height="26" fill="none" xmlns="http://www.w3.org/2000/svg"><path d="M27.54 2.352H10.819A3.455 3.455 0 007.549 0c-1.519 0-2.81.986-3.27 2.352H1.67a1.098 1.098 0 000 2.196h2.61a3.455 3.455 0 003.27 2.351c1.518 0 2.81-.986 3.27-2.351h16.72a1.098 1.098 0 100-2.196zM7.549 4.704A1.255 1.255 0 016.295 3.45a1.255 1.255 0 012.508 0c0 .691-.563 1.254-1.254 1.254zM27.54 11.76h-2.61a3.455 3.455 0 00-3.27-2.352c-1.518 0-2.81.986-3.27 2.352H1.67a1.098 1.098 0 100 2.195h16.72a3.455 3.455 0 003.27 2.352c1.518 0 2.81-.986 3.27-2.352h2.61a1.098 1.098 0 000-2.195zm-5.88 2.351a1.255 1.255 0 01-1.254-1.254c0-.691.563-1.254 1.254-1.254.692 0 1.254.563 1.254 1.254 0 .692-.563 1.254-1.254 1.254zm5.88 7.056H15.522a3.455 3.455 0 00-3.27-2.352c-1.518 0-2.81.986-3.269 2.352H1.669a1.098 1.098 0 100 2.195h7.314a3.455 3.455 0 003.27 2.352c1.518 0 2.81-.986 3.27-2.351H27.54a1.098 1.098 0 100-2.196zm-15.287 2.352a1.255 1.255 0 01-1.254-1.254 1.255 1.255 0 012.508 0c0 .691-.563 1.254-1.254 1.254z" fill="#fff"/></svg>