<?xml version="1.0" encoding="utf-8"?><svg viewBox="0 0 28 28" xmlns="http://www.w3.org/2000/svg" xmlns:xlink="http://www.w3.org/1999/xlink"><style>:root>svg{display:none}:root>svg:target{display:block}</style><svg fill="none" viewBox="0 0 28 28" id="phone" xmlns="http://www.w3.org/2000/svg"><path d="M25.543 18.3c-1.683 0-3.337-.263-4.903-.78-.768-.262-1.711-.022-2.18.46l-3.092 2.333c-3.586-1.914-5.795-4.122-7.683-7.681L9.951 9.62c.588-.587.8-1.446.546-2.252a15.638 15.638 0 01-.784-4.911A2.21 2.21 0 007.507.25h-5.05A2.21 2.21 0 00.25 2.457c0 13.947 11.346 25.293 25.293 25.293a2.21 2.21 0 002.207-2.207v-5.036a2.21 2.21 0 00-2.207-2.206z" fill="#fff"/></svg></svg>