<svg width="24" height="24" fill="none" xmlns="http://www.w3.org/2000/svg"><path d="M12 .842C7.085.842 2.418.423.635 4.805c-.737 1.81-.63 4.16-.63 7.524 0 2.953-.098 5.729.63 7.524 1.779 4.384 6.484 3.964 11.363 3.964 4.706 0 9.56.469 11.364-3.964.737-1.828.63-4.143.63-7.524 0-4.487.258-7.384-2.015-9.56C19.676.567 16.564.843 11.995.843H12zm-1.075 2.07c10.253-.015 11.558-1.107 10.838 14.055-.256 5.363-4.52 4.774-9.761 4.774-9.557 0-9.832-.261-9.832-9.417 0-9.261.758-9.407 8.755-9.414v.002zm7.478 1.907c-.794 0-1.439.617-1.439 1.378 0 .76.645 1.378 1.44 1.378.794 0 1.438-.617 1.438-1.378 0-.761-.644-1.378-1.439-1.378zM12 6.43c-3.401 0-6.159 2.642-6.159 5.9 0 3.257 2.758 5.897 6.16 5.897 3.401 0 6.157-2.64 6.157-5.898 0-3.257-2.756-5.899-6.158-5.899zm0 2.07c5.286 0 5.293 7.659 0 7.659-5.284 0-5.293-7.659 0-7.659z" fill="#fff"/></svg>