<svg width="37" height="28" fill="none" xmlns="http://www.w3.org/2000/svg"><path d="M35.102 0H1.898C.854 0 0 .97 0 2.154v23.692C0 27.031.854 28 1.897 28h33.206C36.145 28 37 27.03 37 25.846V2.154C37 .969 36.146 0 35.102 0zm-.712 1.615l-14.799 12.6c-.266.23-.674.374-1.091.372-.417.002-.826-.142-1.092-.372L2.61 1.615h31.78zm-7.905 13.432l8.064 11.308.027.03H2.424c.008-.011.018-.02.027-.03l8.064-11.308c.247-.347.2-.855-.106-1.136-.306-.28-.753-.228-1 .12L1.422 25.226V2.625l15.132 12.883c.569.48 1.26.692 1.945.694a2.991 2.991 0 001.945-.694L35.577 2.625v22.602L27.592 14.03c-.248-.347-.696-.4-1.001-.12-.306.281-.353.79-.106 1.137z" fill="#CB3B48"/></svg>