<svg width="33" height="40" fill="none" xmlns="http://www.w3.org/2000/svg"><path d="M28.165 4.835c-6.447-6.446-16.882-6.447-23.33 0-6.446 6.447-6.447 16.882 0 23.33l10.793 10.792a1.233 1.233 0 001.744 0l10.793-10.792c6.446-6.447 6.447-16.882 0-23.33zM26.42 26.421l-9.921 9.92-9.92-9.92c-5.471-5.47-5.471-14.371 0-19.842 5.47-5.47 14.37-5.47 19.84 0 5.471 5.47 5.471 14.372 0 19.842z" fill="#CB3B48"/><path d="M16.5 9.126A7.37 7.37 0 009.125 16.5a7.37 7.37 0 007.375 7.374 7.37 7.37 0 007.374-7.374A7.37 7.37 0 0016.5 9.126zm3.47 10.845c-.046 0-1.209 1.437-3.47 1.437a4.906 4.906 0 01-4.91-4.908 4.906 4.906 0 014.909-4.908c4.407 0 6.525 5.325 3.47 8.379z" fill="#CB3B48"/></svg>