<svg width="30" height="31" fill="none" xmlns="http://www.w3.org/2000/svg"><path d="M23.722 18.611c-.615-.64-1.357-.983-2.143-.983-.78 0-1.528.336-2.169.977l-2.003 1.997c-.165-.089-.33-.171-.489-.254a8.02 8.02 0 01-.627-.336c-1.877-1.192-3.583-2.745-5.219-4.755-.793-1.002-1.325-1.846-1.712-2.702.52-.475 1.002-.97 1.471-1.445.178-.178.355-.362.533-.54 1.331-1.33 1.331-3.056 0-4.387L9.633 4.452a26.4 26.4 0 01-.59-.603c-.38-.393-.78-.799-1.192-1.18-.615-.608-1.35-.931-2.124-.931s-1.522.323-2.156.932l-.013.013-2.156 2.175A4.64 4.64 0 00.026 7.806c-.152 1.852.393 3.576.812 4.705 1.027 2.771 2.561 5.34 4.85 8.091 2.778 3.316 6.12 5.935 9.937 7.78 1.458.691 3.405 1.51 5.58 1.649.133.006.272.013.4.013 1.464 0 2.694-.527 3.658-1.573.006-.012.019-.019.025-.032.33-.4.71-.76 1.11-1.147.273-.26.552-.533.824-.818.628-.653.958-1.414.958-2.194 0-.787-.336-1.541-.977-2.175l-3.48-3.494zm2.27 6.677c-.006 0-.006.006 0 0-.247.266-.5.507-.773.774a16.44 16.44 0 00-1.224 1.268c-.64.685-1.395 1.008-2.384 1.008-.096 0-.197 0-.292-.006-1.883-.12-3.633-.856-4.946-1.484-3.589-1.738-6.74-4.204-9.36-7.33-2.161-2.606-3.607-5.016-4.565-7.603-.59-1.579-.805-2.809-.71-3.97a2.91 2.91 0 01.875-1.883L4.775 3.9c.311-.292.64-.45.964-.45.4 0 .723.24.926.444l.02.019c.386.361.754.735 1.14 1.135.197.203.4.406.603.615l1.73 1.73c.673.673.673 1.294 0 1.967-.183.183-.36.367-.544.545a33.111 33.111 0 01-1.592 1.547c-.013.013-.025.02-.032.032-.545.545-.444 1.078-.33 1.44l.02.056c.45 1.09 1.084 2.118 2.048 3.342l.006.006c1.75 2.156 3.595 3.837 5.63 5.124.26.165.527.298.78.425.229.114.445.222.629.336.025.012.05.031.076.044.215.108.418.159.627.159.527 0 .856-.33.964-.438l2.169-2.169c.215-.215.558-.475.957-.475.393 0 .717.247.913.463l.013.012 3.494 3.494c.653.647.653 1.313.006 1.985zM16.214 7.147a8.04 8.04 0 014.376 2.27 8.083 8.083 0 012.27 4.375.85.85 0 00.843.71.857.857 0 00.85-1.002 9.78 9.78 0 00-2.746-5.294 9.78 9.78 0 00-5.295-2.746.86.86 0 00-.989.697.847.847 0 00.691.99zm13.773 6.106a16.09 16.09 0 00-4.521-8.719 16.09 16.09 0 00-8.719-4.52.853.853 0 00-.983.697.86.86 0 00.704.989c2.955.5 5.65 1.902 7.793 4.039a14.365 14.365 0 014.04 7.793.85.85 0 00.843.71c.05 0 .095-.006.145-.013a.84.84 0 00.698-.976z" fill="#CB3B48"/></svg>