<svg width="25" height="22" fill="none" xmlns="http://www.w3.org/2000/svg"><path d="M6.603 12.588l.075.233 2.23 6.918h0a.163.163 0 00.116.107.192.192 0 00.175-.033h0l3.212-2.526h0a1.486 1.486 0 011.763-.048h0l5.792 4.057h0a.194.194 0 00.182.022.157.157 0 00.106-.114h0l4.242-19.689L6.603 12.588zm0 0l-.232-.084m.232.084l-.232-.084m0 0L.611 10.43s0 0 0 0a.168.168 0 01-.086-.062.146.146 0 01-.025-.081c0-.03.009-.059.023-.081a.167.167 0 01.086-.062h0l23.641-8.8h0M6.372 12.505l17.88-11.16m0 0a.19.19 0 01.192.03m-.192-.03l.192.03M7.817 11.442h0l11.258-6.69h0a.695.695 0 011.057.62.68.68 0 01-.231.482l-9.29 8.332a1.331 1.331 0 00-.437.81l-.316 2.261-2.041-5.815zm0 0a1.576 1.576 0 00-.72 1.802s0 0 0 0l1.218 4.126h0m-.498-5.928l.498 5.928m0 0c.122.412.5.582.815.56m-.815-.56l.815.56M24.443 1.375c.049.04.064.089.053.14l-.053-.14zM9.13 17.929a.78.78 0 00.728-.672l-.728.672zM19.233 5.11h0v-.001h0z" stroke="#fff"/></svg>