<svg width="26" height="26" fill="none" xmlns="http://www.w3.org/2000/svg"><path d="M2.862 20.054l.082-.245-.152-.209A11.95 11.95 0 01.5 12.543C.5 5.9 5.9.5 12.54.5h.006c6.64 0 12.04 5.403 12.04 12.043s-5.4 12.043-12.04 12.043c-2.45 0-4.72-.729-6.624-1.99l-.2-.132-.228.073-3.881 1.24 1.249-3.723zm17.454-2.175h0c.165-.469.25-.907.28-1.257.015-.174.018-.334.008-.47a1.042 1.042 0 00-.11-.426h0l-.002-.004c-.118-.206-.31-.322-.439-.392a6.406 6.406 0 00-.287-.143l-.183-.09h-.002a119.32 119.32 0 00-1.266-.622c-.514-.248-1.075-.514-1.285-.588a1.284 1.284 0 00-.777-.058 1.245 1.245 0 00-.701.51l-.145.204c-.305.43-.574.807-.793 1.043a.185.185 0 01-.114.051.423.423 0 01-.213-.032l-.192.462.192-.461c-.033-.014-.07-.03-.113-.046-.468-.19-1.466-.592-2.688-1.68h0c-1.023-.91-1.727-2.055-1.936-2.408a.289.289 0 01-.023-.05s0 0 0 0a.328.328 0 01.021-.033c.023-.032.05-.064.096-.117l.003-.004h0l.008-.01c.08-.1.16-.187.248-.28l.042-.045c.076-.08.16-.17.244-.267l.037-.043c.164-.188.302-.345.44-.64.237-.469.045-.917-.05-1.114-.058-.122-.419-.998-.739-1.774L9.5 6.179v-.002c-.13-.311-.286-.581-.54-.747-.244-.16-.51-.171-.677-.178a9.095 9.095 0 01-.05-.002 7.8 7.8 0 00-.412-.013c-.552 0-1.207.159-1.64.6h0l-.032.033c-.41.418-1.393 1.417-1.393 3.37 0 1.012.367 1.979.733 2.701.35.69.721 1.196.836 1.353l.017.023h0l.006.008s0 0 0 0c0 .002.005.007.013.018l.034.05.017.024.094.136a19.429 19.429 0 001.683 2.087c1.103 1.184 2.675 2.558 4.61 3.36 1.458.604 2.433.892 3.145 1.004.733.117 1.175.046 1.544-.033h.001a4.902 4.902 0 001.652-.717c.5-.338.974-.804 1.176-1.375z" stroke="#fff"/></svg>